<?xml version="1.0" encoding="UTF-8"?>
<svg id="Layer_1" data-name="Layer 1" xmlns="http://www.w3.org/2000/svg" xmlns:xlink="http://www.w3.org/1999/xlink" viewBox="0 0 456 250">
  <defs>
    <style>
      .cls-1 {
        fill: #1a1a1a;
        fill-rule: evenodd;
      }

      .cls-2 {
        fill: #fff;
        filter: url(#drop-shadow-2);
        stroke: #e1e1e1;
        stroke-miterlimit: 10;
        stroke-width: 6px;
      }

      .cls-3 {
        filter: url(#drop-shadow-1);
      }

      .cls-4 {
        fill: silver;
      }
    </style>
    <filter id="drop-shadow-1" x="-22" y="5" width="258" height="259" filterUnits="userSpaceOnUse">
      <feOffset dx="4" dy="9"/>
      <feGaussianBlur result="blur" stdDeviation="9"/>
      <feFlood flood-color="#000" flood-opacity=".06"/>
      <feComposite in2="blur" operator="in"/>
      <feComposite in="SourceGraphic"/>
    </filter>
    <filter id="drop-shadow-2" x="1.9" y="23.95" width="203.09" height="203.09" filterUnits="userSpaceOnUse">
      <feOffset dx="1" dy="1"/>
      <feGaussianBlur result="blur-2" stdDeviation="0"/>
      <feFlood flood-color="#000" flood-opacity="0"/>
      <feComposite in2="blur-2" operator="in"/>
      <feComposite in="SourceGraphic"/>
    </filter>
  </defs>
  <g>
    <rect class="cls-4" x="203.45" y="115.45" width="21" height="18.95"/>
    <rect class="cls-4" x="266.72" y="115.18" width="41.73" height="19.23"/>
    <rect class="cls-4" x="349.9" y="115.45" width="42.95" height="18.68"/>
    <rect class="cls-4" x="434.86" y="115.45" width="20.45" height="18.68"/>
  </g>
  <g class="cls-3">
    <circle class="cls-2" cx="102.95" cy="125" r="98.05"/>
    <path class="cls-1" d="M102.95,81.77c1.62,0,3.18.65,4.33,1.8s1.79,2.72,1.79,4.35v30.75h30.61c1.62,0,3.18.65,4.33,1.8,1.15,1.15,1.79,2.72,1.79,4.35s-.65,3.2-1.79,4.35c-1.15,1.15-2.71,1.8-4.33,1.8h-30.61v30.75c0,1.63-.64,3.2-1.79,4.35-1.15,1.15-2.71,1.8-4.33,1.8s-3.18-.65-4.33-1.8c-1.15-1.15-1.79-2.72-1.79-4.35v-30.75h-30.61c-1.62,0-3.18-.65-4.33-1.8-1.15-1.15-1.79-2.72-1.79-4.35s.65-3.2,1.79-4.35c1.15-1.15,2.71-1.8,4.33-1.8h30.61v-30.75c0-1.63.65-3.2,1.79-4.35s2.71-1.8,4.33-1.8Z"/>
  </g>
</svg>